<?xml version="1.0" encoding="utf-8"?>
<!-- Generator: Adobe Illustrator 18.0.0, SVG Export Plug-In . SVG Version: 6.00 Build 0)  -->
<!DOCTYPE svg PUBLIC "-//W3C//DTD SVG 1.1//EN" "http://www.w3.org/Graphics/SVG/1.1/DTD/svg11.dtd">
<svg version="1.1" id="Layer_1" xmlns="http://www.w3.org/2000/svg" xmlns:xlink="http://www.w3.org/1999/xlink" x="0px" y="0px"
	 viewBox="0 0 612 792" enable-background="new 0 0 612 792" xml:space="preserve">
<path d="M507.3,414.4H150.6c-3.1,0-5.5,0-8.6,0.6c12.9,8.6,20.8,20.2,20.8,33.7s-8,25.1-20.8,33.7c2.4,0.6,5.5,0.6,8.6,0.6h356.8
	c20.2,0,36.7-11.6,36.7-25.7v-17.7C544.1,426,527.5,414.4,507.3,414.4z"/>
<path d="M480.4,501.9H123.6c-3.1,0-5.5,0-8.6,0.6c12.9,8.6,20.8,20.2,20.8,33.7c0,12.9-8,25.1-20.8,33.7c2.4,0.6,5.5,0.6,8.6,0.6
	h356.8c20.2,0,36.7-11.6,36.7-25.1v-17.7C517.1,513.5,500.6,501.9,480.4,501.9z"/>
<path d="M127.3,395.4h305.4c17.1,0,31.2-16.5,31.2-37.3v-26.3c0-20.2-14.1-37.3-31.2-37.3H127.3c-2.4,0-4.9,0.6-7.3,1.2
	c11,12.2,17.7,30,17.7,49c0,19.6-6.7,36.7-17.7,49C122.4,394.8,124.8,395.4,127.3,395.4z"/>
<path d="M497.6,263.2c0,3.7,3.1,7.3,7.3,7.3h4.9c3.7,0,7.3-3.1,7.3-7.3V139.6l-19,6.7v116.9H497.6z"/>
<path d="M507.3,273L507.3,273c-12.2,0-22,21.4-22,47.1h44.1C529.4,294.4,519.6,273,507.3,273z"/>
<path d="M187.9,165.3c0,17.1,0,51.4,0,52c0,38.6,56.9,55.1,127.9,55.1c70.4,0,127.3-17.1,127.3-55.1c0-1.2,0-7.3,0-9.8v-42.8
	l-127.3,44.1L187.9,165.3z"/>
<polygon points="315.2,195.9 529.4,116.9 312.1,51.4 101.6,118.2 "/>
</svg>
